{
	"patcher" : 	{
		"fileversion" : 1,
		"appversion" : 		{
			"major" : 6,
			"minor" : 0,
			"revision" : 8
		}
,
		"rect" : [ 5.0, 62.0, 974.0, 610.0 ],
		"bglocked" : 0,
		"openinpresentation" : 0,
		"default_fontsize" : 12.0,
		"default_fontface" : 0,
		"default_fontname" : "Arial",
		"gridonopen" : 0,
		"gridsize" : [ 15.0, 15.0 ],
		"gridsnaponopen" : 0,
		"statusbarvisible" : 2,
		"toolbarvisible" : 1,
		"boxanimatetime" : 200,
		"imprint" : 0,
		"enablehscroll" : 1,
		"enablevscroll" : 1,
		"devicewidth" : 0.0,
		"description" : "",
		"digest" : "",
		"tags" : "",
		"boxes" : [ 			{
				"box" : 				{
					"fontname" : "Arial",
					"fontsize" : 12.0,
					"id" : "obj-41",
					"maxclass" : "number",
					"numinlets" : 1,
					"numoutlets" : 2,
					"outlettype" : [ "int", "bang" ],
					"parameter_enable" : 0,
					"patching_rect" : [ 666.0, 205.0, 50.0, 20.0 ]
				}

			}
, 			{
				"box" : 				{
					"fontname" : "Arial",
					"fontsize" : 12.0,
					"id" : "obj-40",
					"maxclass" : "number",
					"numinlets" : 1,
					"numoutlets" : 2,
					"outlettype" : [ "int", "bang" ],
					"parameter_enable" : 0,
					"patching_rect" : [ 600.0, 205.0, 50.0, 20.0 ]
				}

			}
, 			{
				"box" : 				{
					"fontname" : "Arial",
					"fontsize" : 12.0,
					"id" : "obj-39",
					"maxclass" : "number",
					"numinlets" : 1,
					"numoutlets" : 2,
					"outlettype" : [ "int", "bang" ],
					"parameter_enable" : 0,
					"patching_rect" : [ 539.0, 205.0, 50.0, 20.0 ]
				}

			}
, 			{
				"box" : 				{
					"fontname" : "Arial",
					"fontsize" : 12.0,
					"id" : "obj-38",
					"maxclass" : "number",
					"numinlets" : 1,
					"numoutlets" : 2,
					"outlettype" : [ "int", "bang" ],
					"parameter_enable" : 0,
					"patching_rect" : [ 482.0, 205.0, 50.0, 20.0 ]
				}

			}
, 			{
				"box" : 				{
					"id" : "obj-35",
					"maxclass" : "button",
					"numinlets" : 1,
					"numoutlets" : 1,
					"outlettype" : [ "bang" ],
					"patching_rect" : [ 197.0, 487.0, 20.0, 20.0 ]
				}

			}
, 			{
				"box" : 				{
					"id" : "obj-33",
					"maxclass" : "button",
					"numinlets" : 1,
					"numoutlets" : 1,
					"outlettype" : [ "bang" ],
					"patching_rect" : [ 197.0, 441.0, 20.0, 20.0 ]
				}

			}
, 			{
				"box" : 				{
					"id" : "obj-31",
					"maxclass" : "button",
					"numinlets" : 1,
					"numoutlets" : 1,
					"outlettype" : [ "bang" ],
					"patching_rect" : [ 197.0, 396.5, 20.0, 20.0 ]
				}

			}
, 			{
				"box" : 				{
					"id" : "obj-29",
					"maxclass" : "button",
					"numinlets" : 1,
					"numoutlets" : 1,
					"outlettype" : [ "bang" ],
					"patching_rect" : [ 197.0, 343.0, 20.0, 20.0 ]
				}

			}
, 			{
				"box" : 				{
					"fontname" : "Arial",
					"fontsize" : 12.0,
					"id" : "obj-10",
					"maxclass" : "newobj",
					"numinlets" : 1,
					"numoutlets" : 5,
					"outlettype" : [ "int", "int", "int", "int", "int" ],
					"patching_rect" : [ 343.0, 174.0, 99.0, 20.0 ],
					"text" : "unpack 0 0 0 0 0"
				}

			}
, 			{
				"box" : 				{
					"fontname" : "Arial",
					"fontsize" : 12.0,
					"frgb" : 0.0,
					"id" : "obj-28",
					"maxclass" : "comment",
					"numinlets" : 1,
					"numoutlets" : 0,
					"patching_rect" : [ 404.0, 270.0, 199.0, 20.0 ],
					"text" : "Test Internal Messages"
				}

			}
, 			{
				"box" : 				{
					"fontname" : "Arial",
					"fontsize" : 12.0,
					"frgb" : 0.0,
					"id" : "obj-27",
					"maxclass" : "comment",
					"numinlets" : 1,
					"numoutlets" : 0,
					"patching_rect" : [ 63.5, 233.0, 632.5, 20.0 ],
					"text" : "File Player Testing"
				}

			}
, 			{
				"box" : 				{
					"fontname" : "Arial",
					"fontsize" : 12.0,
					"frgb" : 0.0,
					"id" : "obj-25",
					"maxclass" : "comment",
					"numinlets" : 1,
					"numoutlets" : 0,
					"patching_rect" : [ 63.5, 270.0, 199.0, 20.0 ],
					"text" : "Test Directly Connected Messages"
				}

			}
, 			{
				"box" : 				{
					"fontname" : "Arial",
					"fontsize" : 12.0,
					"id" : "obj-21",
					"maxclass" : "message",
					"numinlets" : 2,
					"numoutlets" : 1,
					"outlettype" : [ "" ],
					"patching_rect" : [ 217.0, 531.0, 87.0, 18.0 ],
					"text" : "17 80 1 48000"
				}

			}
, 			{
				"box" : 				{
					"fontname" : "Arial",
					"fontsize" : 12.0,
					"id" : "obj-20",
					"maxclass" : "message",
					"numinlets" : 2,
					"numoutlets" : 1,
					"outlettype" : [ "" ],
					"patching_rect" : [ 217.0, 487.0, 87.0, 18.0 ],
					"text" : "16 80 1 48000"
				}

			}
, 			{
				"box" : 				{
					"fontname" : "Arial",
					"fontsize" : 12.0,
					"id" : "obj-19",
					"maxclass" : "message",
					"numinlets" : 2,
					"numoutlets" : 1,
					"outlettype" : [ "" ],
					"patching_rect" : [ 217.0, 441.0, 87.0, 18.0 ],
					"text" : "15 80 1 48000"
				}

			}
, 			{
				"box" : 				{
					"fontname" : "Arial",
					"fontsize" : 12.0,
					"id" : "obj-18",
					"maxclass" : "message",
					"numinlets" : 2,
					"numoutlets" : 1,
					"outlettype" : [ "" ],
					"patching_rect" : [ 217.0, 397.5, 87.0, 18.0 ],
					"text" : "14 80 1 48000"
				}

			}
, 			{
				"box" : 				{
					"fontname" : "Arial",
					"fontsize" : 12.0,
					"id" : "obj-16",
					"linecount" : 6,
					"maxclass" : "message",
					"numinlets" : 2,
					"numoutlets" : 1,
					"outlettype" : [ "" ],
					"patching_rect" : [ 714.0, 276.0, 229.0, 85.0 ],
					"text" : ";\rsfPlayerNote 13 60 1 5000 0. -1 -1 -1 -1;\rsfPlayerNote 14 60 1 5000 0. -1 -1 -1 -1;\rsfPlayerNote 15 60 1 5000 0. -1 -1 -1 -1;\rsfPlayerNote 16 60 1 5000 0. -1 -1 -1 -1;\rsfPlayerNote 17 60 1 5000 0. -1 -1 -1 -1;\r"
				}

			}
, 			{
				"box" : 				{
					"fontname" : "Arial",
					"fontsize" : 12.0,
					"id" : "obj-12",
					"maxclass" : "message",
					"numinlets" : 2,
					"numoutlets" : 1,
					"outlettype" : [ "" ],
					"patching_rect" : [ 217.0, 343.0, 87.0, 18.0 ],
					"text" : "13 80 1 48000"
				}

			}
, 			{
				"box" : 				{
					"id" : "obj-9",
					"maxclass" : "ezdac~",
					"numinlets" : 2,
					"numoutlets" : 0,
					"patching_rect" : [ 404.0, 562.0, 45.0, 45.0 ]
				}

			}
, 			{
				"box" : 				{
					"fontname" : "Arial",
					"fontsize" : 12.0,
					"id" : "obj-7",
					"linecount" : 4,
					"maxclass" : "message",
					"numinlets" : 2,
					"numoutlets" : 1,
					"outlettype" : [ "" ],
					"patching_rect" : [ 768.0, 423.0, 157.0, 58.0 ],
					"text" : ";\rsfPlayerOnOff 1;\rsfPlayerVol 63;\rsfPlayerLoadSamples bang"
				}

			}
, 			{
				"box" : 				{
					"id" : "obj-2",
					"maxclass" : "bpatcher",
					"name" : "sfPlayerBP.maxpat",
					"numinlets" : 4,
					"numoutlets" : 3,
					"outlettype" : [ "", "", "signal" ],
					"patching_rect" : [ 385.0, 363.0, 237.0, 153.0 ]
				}

			}
, 			{
				"box" : 				{
					"fontname" : "Arial",
					"fontsize" : 12.0,
					"frgb" : 0.0,
					"id" : "obj-8",
					"linecount" : 2,
					"maxclass" : "comment",
					"numinlets" : 1,
					"numoutlets" : 0,
					"patching_rect" : [ 63.0, 27.0, 633.0, 33.0 ],
					"text" : "These send to/ receive from the C++ oscpack tests in communication. Do not bind simulateneously on port 7000 (Max requires a change to the port to remove the binding."
				}

			}
, 			{
				"box" : 				{
					"fontname" : "Arial",
					"fontsize" : 12.0,
					"id" : "obj-17",
					"maxclass" : "message",
					"numinlets" : 2,
					"numoutlets" : 1,
					"outlettype" : [ "" ],
					"patching_rect" : [ 141.0, 110.0, 57.0, 18.0 ],
					"text" : "/test1 44"
				}

			}
, 			{
				"box" : 				{
					"fontname" : "Arial",
					"fontsize" : 13.0,
					"id" : "obj-14",
					"maxclass" : "newobj",
					"numinlets" : 1,
					"numoutlets" : 0,
					"patching_rect" : [ 408.0, 143.0, 189.0, 21.0 ],
					"text" : "print receivedmess @popup 1"
				}

			}
, 			{
				"box" : 				{
					"fontname" : "Arial",
					"fontsize" : 12.0,
					"id" : "obj-15",
					"maxclass" : "newobj",
					"numinlets" : 1,
					"numoutlets" : 1,
					"outlettype" : [ "" ],
					"patching_rect" : [ 408.0, 110.0, 99.0, 20.0 ],
					"text" : "udpreceive 7000"
				}

			}
, 			{
				"box" : 				{
					"fontname" : "Arial",
					"fontsize" : 12.0,
					"frgb" : 0.0,
					"id" : "obj-5",
					"maxclass" : "comment",
					"numinlets" : 1,
					"numoutlets" : 0,
					"patching_rect" : [ 408.0, 71.0, 230.0, 20.0 ],
					"text" : "Receive a message from OCP Test Send"
				}

			}
, 			{
				"box" : 				{
					"fontname" : "Arial",
					"fontsize" : 12.0,
					"frgb" : 0.0,
					"id" : "obj-4",
					"maxclass" : "comment",
					"numinlets" : 1,
					"numoutlets" : 0,
					"patching_rect" : [ 62.0, 71.0, 215.0, 20.0 ],
					"text" : "Send a message to OCP Test Receive"
				}

			}
, 			{
				"box" : 				{
					"fontname" : "Arial",
					"fontsize" : 12.0,
					"id" : "obj-3",
					"maxclass" : "message",
					"numinlets" : 2,
					"numoutlets" : 1,
					"outlettype" : [ "" ],
					"patching_rect" : [ 69.0, 110.0, 50.0, 18.0 ],
					"text" : "/test 44"
				}

			}
, 			{
				"box" : 				{
					"fontname" : "Arial",
					"fontsize" : 12.0,
					"id" : "obj-1",
					"maxclass" : "newobj",
					"numinlets" : 1,
					"numoutlets" : 0,
					"patching_rect" : [ 69.0, 143.0, 137.0, 20.0 ],
					"text" : "udpsend localhost 7000"
				}

			}
 ],
		"lines" : [ 			{
				"patchline" : 				{
					"destination" : [ "obj-38", 0 ],
					"disabled" : 0,
					"hidden" : 0,
					"source" : [ "obj-10", 1 ]
				}

			}
, 			{
				"patchline" : 				{
					"destination" : [ "obj-39", 0 ],
					"disabled" : 0,
					"hidden" : 0,
					"source" : [ "obj-10", 2 ]
				}

			}
, 			{
				"patchline" : 				{
					"destination" : [ "obj-40", 0 ],
					"disabled" : 0,
					"hidden" : 0,
					"source" : [ "obj-10", 3 ]
				}

			}
, 			{
				"patchline" : 				{
					"destination" : [ "obj-41", 0 ],
					"disabled" : 0,
					"hidden" : 0,
					"source" : [ "obj-10", 4 ]
				}

			}
, 			{
				"patchline" : 				{
					"destination" : [ "obj-2", 0 ],
					"disabled" : 0,
					"hidden" : 0,
					"source" : [ "obj-12", 0 ]
				}

			}
, 			{
				"patchline" : 				{
					"destination" : [ "obj-10", 0 ],
					"disabled" : 0,
					"hidden" : 0,
					"source" : [ "obj-15", 0 ]
				}

			}
, 			{
				"patchline" : 				{
					"destination" : [ "obj-14", 0 ],
					"disabled" : 0,
					"hidden" : 0,
					"source" : [ "obj-15", 0 ]
				}

			}
, 			{
				"patchline" : 				{
					"destination" : [ "obj-1", 0 ],
					"disabled" : 0,
					"hidden" : 0,
					"source" : [ "obj-17", 0 ]
				}

			}
, 			{
				"patchline" : 				{
					"destination" : [ "obj-2", 0 ],
					"disabled" : 0,
					"hidden" : 0,
					"source" : [ "obj-18", 0 ]
				}

			}
, 			{
				"patchline" : 				{
					"destination" : [ "obj-2", 0 ],
					"disabled" : 0,
					"hidden" : 0,
					"source" : [ "obj-19", 0 ]
				}

			}
, 			{
				"patchline" : 				{
					"destination" : [ "obj-9", 1 ],
					"disabled" : 0,
					"hidden" : 0,
					"source" : [ "obj-2", 2 ]
				}

			}
, 			{
				"patchline" : 				{
					"destination" : [ "obj-9", 0 ],
					"disabled" : 0,
					"hidden" : 0,
					"source" : [ "obj-2", 2 ]
				}

			}
, 			{
				"patchline" : 				{
					"destination" : [ "obj-2", 0 ],
					"disabled" : 0,
					"hidden" : 0,
					"source" : [ "obj-20", 0 ]
				}

			}
, 			{
				"patchline" : 				{
					"destination" : [ "obj-12", 0 ],
					"disabled" : 0,
					"hidden" : 0,
					"source" : [ "obj-29", 0 ]
				}

			}
, 			{
				"patchline" : 				{
					"destination" : [ "obj-1", 0 ],
					"disabled" : 0,
					"hidden" : 0,
					"source" : [ "obj-3", 0 ]
				}

			}
, 			{
				"patchline" : 				{
					"destination" : [ "obj-18", 0 ],
					"disabled" : 0,
					"hidden" : 0,
					"source" : [ "obj-31", 0 ]
				}

			}
, 			{
				"patchline" : 				{
					"destination" : [ "obj-19", 0 ],
					"disabled" : 0,
					"hidden" : 0,
					"source" : [ "obj-33", 0 ]
				}

			}
, 			{
				"patchline" : 				{
					"destination" : [ "obj-20", 0 ],
					"disabled" : 0,
					"hidden" : 0,
					"source" : [ "obj-35", 0 ]
				}

			}
, 			{
				"patchline" : 				{
					"destination" : [ "obj-29", 0 ],
					"disabled" : 0,
					"hidden" : 0,
					"source" : [ "obj-38", 0 ]
				}

			}
, 			{
				"patchline" : 				{
					"destination" : [ "obj-31", 0 ],
					"disabled" : 0,
					"hidden" : 0,
					"source" : [ "obj-39", 0 ]
				}

			}
, 			{
				"patchline" : 				{
					"destination" : [ "obj-33", 0 ],
					"disabled" : 0,
					"hidden" : 0,
					"source" : [ "obj-40", 0 ]
				}

			}
, 			{
				"patchline" : 				{
					"destination" : [ "obj-35", 0 ],
					"disabled" : 0,
					"hidden" : 0,
					"source" : [ "obj-41", 0 ]
				}

			}
 ],
		"dependency_cache" : [ 			{
				"name" : "sfPlayerBP.maxpat",
				"bootpath" : "/Users/jodispacek/Development/UBCToolbox_0.98/Modules/Players/sfPlayer",
				"patcherrelativepath" : "../../../../Development/UBCToolbox_0.98/Modules/Players/sfPlayer",
				"type" : "JSON",
				"implicit" : 1
			}
, 			{
				"name" : "sfPlayer24.maxpat",
				"bootpath" : "/Users/jodispacek/Development/UBCToolbox_0.98/Modules/Players/sfPlayer/lib",
				"patcherrelativepath" : "../../../../Development/UBCToolbox_0.98/Modules/Players/sfPlayer/lib",
				"type" : "JSON",
				"implicit" : 1
			}
, 			{
				"name" : "sampleUnitA.maxpat",
				"bootpath" : "/Users/jodispacek/Development/UBCToolbox_0.98/Modules/Players/sfPlayer/lib",
				"patcherrelativepath" : "../../../../Development/UBCToolbox_0.98/Modules/Players/sfPlayer/lib",
				"type" : "JSON",
				"implicit" : 1
			}
, 			{
				"name" : "sfdata",
				"bootpath" : "/Users/jodispacek/Development/UBCToolbox_0.98/Modules/Players/sfPlayer/lib",
				"patcherrelativepath" : "../../../../Development/UBCToolbox_0.98/Modules/Players/sfPlayer/lib",
				"type" : "TEXT",
				"implicit" : 1
			}
, 			{
				"name" : "sfTable",
				"bootpath" : "/Users/jodispacek/Development/UBCToolbox_0.98/Modules/Players/sfPlayer/lib",
				"patcherrelativepath" : "../../../../Development/UBCToolbox_0.98/Modules/Players/sfPlayer/lib",
				"type" : "TEXT",
				"implicit" : 1
			}
, 			{
				"name" : "gainScale.maxpat",
				"bootpath" : "/Users/jodispacek/Development/UBCToolbox_0.98/ubcLib",
				"patcherrelativepath" : "../../../../Development/UBCToolbox_0.98/ubcLib",
				"type" : "JSON",
				"implicit" : 1
			}
, 			{
				"name" : "flash2.maxpat",
				"bootpath" : "/Users/jodispacek/Development/UBCToolbox_0.98/ubcLib",
				"patcherrelativepath" : "../../../../Development/UBCToolbox_0.98/ubcLib",
				"type" : "JSON",
				"implicit" : 1
			}
, 			{
				"name" : "parsePan.maxpat",
				"bootpath" : "/Users/jodispacek/Development/UBCToolbox_0.98/ubcLib",
				"patcherrelativepath" : "../../../../Development/UBCToolbox_0.98/ubcLib",
				"type" : "JSON",
				"implicit" : 1
			}
, 			{
				"name" : "lineKH.maxpat",
				"bootpath" : "/Users/jodispacek/Development/UBCToolbox_0.98/ubcLib",
				"patcherrelativepath" : "../../../../Development/UBCToolbox_0.98/ubcLib",
				"type" : "JSON",
				"implicit" : 1
			}
, 			{
				"name" : "MRrC.maxpat",
				"bootpath" : "/Users/jodispacek/Development/UBCToolbox_0.98/ubcLib",
				"patcherrelativepath" : "../../../../Development/UBCToolbox_0.98/ubcLib",
				"type" : "JSON",
				"implicit" : 1
			}
, 			{
				"name" : "multiName_.maxpat",
				"bootpath" : "/Users/jodispacek/Development/UBCToolbox_0.98/ubcLib",
				"patcherrelativepath" : "../../../../Development/UBCToolbox_0.98/ubcLib",
				"type" : "JSON",
				"implicit" : 1
			}
, 			{
				"name" : "multiNameNonZero.maxpat",
				"bootpath" : "/Users/jodispacek/Development/UBCToolbox_0.98/ubcLib",
				"patcherrelativepath" : "../../../../Development/UBCToolbox_0.98/ubcLib",
				"type" : "JSON",
				"implicit" : 1
			}
, 			{
				"name" : "sliderTrack2.pct",
				"bootpath" : "/Users/jodispacek/Development/UBCToolbox_0.98/picts",
				"patcherrelativepath" : "../../../../Development/UBCToolbox_0.98/picts",
				"type" : "PICT",
				"implicit" : 1
			}
, 			{
				"name" : "sliderKnob3.pct",
				"bootpath" : "/Users/jodispacek/Development/UBCToolbox_0.98/picts",
				"patcherrelativepath" : "../../../../Development/UBCToolbox_0.98/picts",
				"type" : "PICT",
				"implicit" : 1
			}
, 			{
				"name" : "sfPlayerInfo.maxpat",
				"bootpath" : "/Users/jodispacek/Development/UBCToolbox_0.98/Modules/Players/sfPlayer/lib",
				"patcherrelativepath" : "../../../../Development/UBCToolbox_0.98/Modules/Players/sfPlayer/lib",
				"type" : "JSON",
				"implicit" : 1
			}
, 			{
				"name" : "collFormat.maxpat",
				"bootpath" : "/Users/jodispacek/Development/UBCToolbox_0.98/ubcLib",
				"patcherrelativepath" : "../../../../Development/UBCToolbox_0.98/ubcLib",
				"type" : "JSON",
				"implicit" : 1
			}
, 			{
				"name" : "collbuilder.maxpat",
				"bootpath" : "/Users/jodispacek/Development/UBCToolbox_0.98/ubcLib",
				"patcherrelativepath" : "../../../../Development/UBCToolbox_0.98/ubcLib",
				"type" : "JSON",
				"implicit" : 1
			}
, 			{
				"name" : "moreAboutDataStructures.maxpat",
				"bootpath" : "/Users/jodispacek/Development/UBCToolbox_0.98/ubcLib",
				"patcherrelativepath" : "../../../../Development/UBCToolbox_0.98/ubcLib",
				"type" : "JSON",
				"implicit" : 1
			}
, 			{
				"name" : "toggle10.pct",
				"bootpath" : "/Users/jodispacek/Development/UBCToolbox_0.98/picts",
				"patcherrelativepath" : "../../../../Development/UBCToolbox_0.98/picts",
				"type" : "PICT",
				"implicit" : 1
			}
, 			{
				"name" : "loadSamples.pct",
				"bootpath" : "/Users/jodispacek/Development/UBCToolbox_0.98/picts",
				"patcherrelativepath" : "../../../../Development/UBCToolbox_0.98/picts",
				"type" : "PICT",
				"implicit" : 1
			}
, 			{
				"name" : "bControl.maxpat",
				"bootpath" : "/Users/jodispacek/Development/UBCToolbox_0.98/ubcLib",
				"patcherrelativepath" : "../../../../Development/UBCToolbox_0.98/ubcLib",
				"type" : "JSON",
				"implicit" : 1
			}
, 			{
				"name" : "largeGreen.pct",
				"bootpath" : "/Users/jodispacek/Development/UBCToolbox_0.98/picts",
				"patcherrelativepath" : "../../../../Development/UBCToolbox_0.98/picts",
				"type" : "PICT",
				"implicit" : 1
			}
, 			{
				"name" : "muter.maxpat",
				"bootpath" : "/Users/jodispacek/Development/UBCToolbox_0.98/ubcLib",
				"patcherrelativepath" : "../../../../Development/UBCToolbox_0.98/ubcLib",
				"type" : "JSON",
				"implicit" : 1
			}
, 			{
				"name" : "dragCollNew.maxpat",
				"bootpath" : "/Users/jodispacek/Development/UBCToolbox_0.98/ubcLib",
				"patcherrelativepath" : "../../../../Development/UBCToolbox_0.98/ubcLib",
				"type" : "JSON",
				"implicit" : 1
			}
, 			{
				"name" : "buildSymbol.maxpat",
				"bootpath" : "/Users/jodispacek/Development/UBCToolbox_0.98/ubcLib",
				"patcherrelativepath" : "../../../../Development/UBCToolbox_0.98/ubcLib",
				"type" : "JSON",
				"implicit" : 1
			}
, 			{
				"name" : "soundfilesNew.maxpat",
				"bootpath" : "/Users/jodispacek/Development/UBCToolbox_0.98/Modules/Players/sfPlayer/lib",
				"patcherrelativepath" : "../../../../Development/UBCToolbox_0.98/Modules/Players/sfPlayer/lib",
				"type" : "JSON",
				"implicit" : 1
			}
, 			{
				"name" : "nTbp_.maxpat",
				"bootpath" : "/Users/jodispacek/Development/UBCToolbox_0.98/ubcLib",
				"patcherrelativepath" : "../../../../Development/UBCToolbox_0.98/ubcLib",
				"type" : "JSON",
				"implicit" : 1
			}
, 			{
				"name" : "MRr_.maxpat",
				"bootpath" : "/Users/jodispacek/Development/UBCToolbox_0.98/ubcLib",
				"patcherrelativepath" : "../../../../Development/UBCToolbox_0.98/ubcLib",
				"type" : "JSON",
				"implicit" : 1
			}
, 			{
				"name" : "poly2.mxo",
				"type" : "iLaX"
			}
 ]
	}

}
